<svg width="666" height="132" viewBox="0 0 666 132" fill="none" xmlns="http://www.w3.org/2000/svg">
<path d="M665.116 0.5L665.114 1.00195L664.629 130.617L664.627 131.115H0.5V33.8916L0.611328 33.7539L27.4082 0.685547L27.5586 0.5H665.116Z" fill="url(#paint0_linear_158_1668)" stroke="#C3CFE0"/>
<path d="M64.0877 1H27.7967L1 34.0687V60.9338" stroke="#EDC702"/>
<path d="M15.0649 130.729L1 112.848V130.729H15.0649Z" fill="#EDC702"/>
<path d="M650.548 1.00122L664.613 18.8828V1.00122H650.548Z" fill="#EDC702"/>
<path d="M601.912 130.73H638.203H665V70.7966" stroke="#EDC702"/>
<g filter="url(#filter0_i_158_1668)">
<path d="M38.8828 40.1156L53.0465 22.6367H129.193L128.937 91.4998L114.773 108.979H38.8828V40.1156Z" fill="url(#paint1_linear_158_1668)"/>
</g>
<path d="M64.827 44.3232L84 40.0625L103.173 44.3232C103.691 44.4383 104.155 44.7268 104.487 45.1408C104.819 45.5548 105 46.0697 105 46.6005V69.9035C105 72.2082 104.431 74.4772 103.343 76.5092C102.255 78.5411 100.683 80.2732 98.7653 81.5515L84 91.3958L69.2347 81.5515C67.3173 80.2734 65.7451 78.5417 64.6575 76.5102C63.5699 74.4787 63.0006 72.2102 63 69.9058V46.6005C63.0001 46.0697 63.1812 45.5548 63.5133 45.1408C63.8455 44.7268 64.3089 44.4383 64.827 44.3232ZM67.6667 48.4718V69.9035C67.6667 71.4399 68.046 72.9525 68.7709 74.3072C69.4959 75.6618 70.544 76.8165 71.8223 77.6688L84 85.7888L96.1777 77.6688C97.4557 76.8167 98.5036 75.6624 99.2285 74.3082C99.9534 72.954 100.333 71.4418 100.333 69.9058V48.4718L84 44.8458L67.6667 48.4718Z" fill="white"/>
<path d="M78.4721 61.2763C78.4721 61.7431 78.8506 62.1216 79.3174 62.1216C79.7843 62.1216 80.1627 61.7431 80.1627 61.2763H79.3174H78.4721ZM79.3174 58.9332H80.1627H79.3174ZM84.0006 54.25V53.4047V54.25ZM87.8385 61.2753C87.8385 61.7421 88.2169 62.1206 88.6838 62.1206C89.1506 62.1206 89.529 61.7421 89.529 61.2753H88.6838H87.8385ZM80.488 68.6258H79.6427V70.3164H80.488V69.4711V68.6258ZM87.5132 70.3164H88.3585V68.6258H87.5132V69.4711V70.3164ZM89.0635 61.2763V60.431H78.9377V61.2763V62.1216H89.0635V61.2763ZM78.9377 61.2763V60.431C77.1371 60.431 75.561 61.7963 75.561 63.6174H76.4062H77.2515C77.2515 62.8523 77.9435 62.1216 78.9377 62.1216V61.2763ZM76.4062 63.6174H75.561V70.6426H76.4062H77.2515V63.6174H76.4062ZM76.4062 70.6426H75.561C75.561 72.4637 77.1371 73.829 78.9377 73.829V72.9837V72.1384C77.9435 72.1384 77.2515 71.4077 77.2515 70.6426H76.4062ZM78.9377 72.9837V73.829H89.0635V72.9837V72.1384H78.9377V72.9837ZM89.0635 72.9837V73.829C90.864 73.829 92.4402 72.4637 92.4402 70.6426H91.5949H90.7496C90.7496 71.4077 90.0576 72.1384 89.0635 72.1384V72.9837ZM91.5949 70.6426H92.4402V63.6174H91.5949H90.7496V70.6426H91.5949ZM91.5949 63.6174H92.4402C92.4402 61.7963 90.864 60.431 89.0635 60.431V61.2763V62.1216C90.0576 62.1216 90.7496 62.8523 90.7496 63.6174H91.5949ZM79.3174 61.2763H80.1627V58.9332H79.3174H78.4721V61.2763H79.3174ZM79.3174 58.9332H80.1627C80.1627 57.9153 80.567 56.9391 81.2868 56.2194L80.6891 55.6217L80.0914 55.024C79.0546 56.0608 78.4721 57.4669 78.4721 58.9332H79.3174ZM80.6891 55.6217L81.2868 56.2194C82.0065 55.4996 82.9827 55.0953 84.0006 55.0953V54.25V53.4047C82.5344 53.4047 81.1282 53.9872 80.0914 55.024L80.6891 55.6217ZM84.0006 54.25V55.0953C85.0185 55.0953 85.9946 55.4996 86.7144 56.2194L87.3121 55.6217L87.9098 55.024C86.873 53.9872 85.4668 53.4047 84.0006 53.4047V54.25ZM87.3121 55.6217L86.7144 56.2194C87.4341 56.9391 87.8385 57.9153 87.8385 58.9332H88.6838H89.529C89.529 57.4669 88.9466 56.0608 87.9098 55.024L87.3121 55.6217ZM88.6838 58.9332H87.8385V61.2753H88.6838H89.529V58.9332H88.6838ZM80.488 69.4711V70.3164H87.5132V69.4711V68.6258H80.488V69.4711Z" fill="white"/>
<defs>
<filter id="filter0_i_158_1668" x="38.8828" y="22.6367" width="90.3105" height="86.3438" filterUnits="userSpaceOnUse" color-interpolation-filters="sRGB">
<feFlood flood-opacity="0" result="BackgroundImageFix"/>
<feBlend mode="normal" in="SourceGraphic" in2="BackgroundImageFix" result="shape"/>
<feColorMatrix in="SourceAlpha" type="matrix" values="0 0 0 0 0 0 0 0 0 0 0 0 0 0 0 0 0 0 127 0" result="hardAlpha"/>
<feOffset/>
<feGaussianBlur stdDeviation="0.93273"/>
<feComposite in2="hardAlpha" operator="arithmetic" k2="-1" k3="1"/>
<feColorMatrix type="matrix" values="0 0 0 0 0 0 0 0 0 0 0 0 0 0 0 0 0 0 0.25 0"/>
<feBlend mode="normal" in2="shape" result="effect1_innerShadow_158_1668"/>
</filter>
<linearGradient id="paint0_linear_158_1668" x1="638.374" y1="241.73" x2="637.614" y2="-71.6324" gradientUnits="userSpaceOnUse">
<stop stop-color="#101925"/>
<stop offset="1" stop-color="#131F31"/>
</linearGradient>
<linearGradient id="paint1_linear_158_1668" x1="73.5702" y1="97.8331" x2="73.5702" y2="27.6126" gradientUnits="userSpaceOnUse">
<stop stop-color="#0A1320"/>
<stop offset="1" stop-color="#040F1F"/>
</linearGradient>
</defs>
</svg>
