<svg width="198" height="240" viewBox="0 0 198 240" fill="none" xmlns="http://www.w3.org/2000/svg">
<mask id="mask0_2862_2014" style="mask-type:alpha" maskUnits="userSpaceOnUse" x="0" y="0" width="198" height="240">
<path d="M98.5951 0L0 43.6065V109.016C0 169.52 42.0673 226.1 98.5951 239.836C155.123 226.1 197.19 169.52 197.19 109.016V43.6065L98.5951 0Z" fill="black"/>
</mask>
<g mask="url(#mask0_2862_2014)">
<path d="M197.191 43.6064V109.017C197.191 169.52 155.123 226.1 98.5952 239.836C51.4321 228.375 14.3362 187.09 3.33936 138.586H24.4126C25.5435 139.672 27.1013 141.138 29.021 142.862C33.1895 146.606 39.1004 151.608 46.0601 156.627C59.6187 166.405 78.5591 177.292 96.8013 177.346C107.557 177.377 118.043 173.664 127.442 168.549C136.879 163.413 145.626 156.642 153.025 150.018C160.444 143.375 166.65 136.751 170.998 131.796C173.175 129.314 174.898 127.237 176.083 125.771C176.676 125.039 177.136 124.457 177.453 124.053C177.611 123.851 177.733 123.692 177.818 123.581C177.86 123.526 177.894 123.482 177.917 123.451C177.929 123.436 177.94 123.423 177.947 123.413C177.95 123.409 177.953 123.404 177.956 123.401C177.957 123.4 177.959 123.398 177.959 123.397C177.961 123.396 177.96 123.393 172.461 119.227C177.647 115.127 177.865 114.954 177.873 114.945C177.872 114.945 177.871 114.942 177.87 114.94C177.867 114.937 177.863 114.934 177.86 114.93C177.853 114.921 177.843 114.907 177.832 114.893C177.807 114.862 177.773 114.82 177.73 114.767C177.644 114.66 177.521 114.506 177.362 114.311C177.043 113.919 176.579 113.357 175.981 112.647C174.786 111.229 173.051 109.22 170.86 106.817C166.485 102.021 160.246 95.6059 152.808 89.165C138.329 76.6274 117.748 62.6028 96.8579 62.4922C79.0248 62.3979 60.1237 72.4757 46.4868 81.5889C39.493 86.2627 33.5277 90.9295 29.312 94.4248C27.3289 96.069 25.7244 97.4621 24.5728 98.4834H0.000488281V43.6064L98.5952 0L197.191 43.6064ZM96.7847 76.292C112.293 76.3741 129.534 87.2662 143.775 99.5977C150.696 105.591 156.543 111.6 160.664 116.117C161.74 117.298 162.696 118.374 163.519 119.317C162.688 120.309 161.72 121.445 160.625 122.694C156.531 127.36 150.717 133.561 143.82 139.736C136.903 145.93 129.036 151.97 120.845 156.428C112.616 160.906 104.46 163.568 96.8413 163.546C83.2692 163.506 67.4143 155.013 54.1323 145.435C48.7972 141.587 44.104 137.728 40.4292 134.525C41.9909 133.996 43.6658 133.429 45.4155 132.832C52.262 130.495 60.3094 127.709 67.3247 125.185C70.8545 136.581 81.4775 144.859 94.0337 144.859C109.473 144.859 121.988 132.342 121.989 116.903C121.989 101.464 109.473 88.9476 94.0337 88.9473C80.7256 88.9473 69.5892 98.2464 66.7681 110.701C59.1025 113.52 49.2151 116.952 40.9565 119.771C36.4829 121.299 32.5057 122.641 29.647 123.602C28.2178 124.082 27.0681 124.466 26.2769 124.73C26.2204 124.749 26.1656 124.768 26.1128 124.785H0.949707C0.45273 120.649 0.147251 116.478 0.0424805 112.284H29.9712L31.9614 110.408L31.9634 110.407C31.9653 110.405 31.9696 110.401 31.9761 110.395C31.9892 110.382 32.0116 110.362 32.0425 110.333C32.1047 110.275 32.2023 110.184 32.3345 110.062C32.5992 109.82 33.0017 109.454 33.5298 108.984C34.5866 108.044 36.1463 106.685 38.1196 105.049C42.0742 101.77 47.6537 97.408 54.1548 93.0635C67.5083 84.1397 83.4015 76.2213 96.7847 76.292ZM0.949707 124.785C1.5086 129.436 2.30934 134.043 3.33936 138.586H-3.57764V124.785H0.949707ZM94.0337 99.5107C103.639 99.5111 111.425 107.298 111.425 116.903C111.425 126.508 103.639 134.296 94.0337 134.296C84.4283 134.296 76.6414 126.509 76.6411 116.903C76.6411 107.298 84.4281 99.5107 94.0337 99.5107ZM172.461 119.227L177.961 123.395L181.187 119.138L177.875 114.948L172.461 119.227ZM0.000488281 109.017C0.000491619 110.107 0.015305 111.196 0.0424805 112.284H-3.57764V98.4834H0.000488281V109.017Z" fill="url(#paint0_linear_2862_2014)"/>
</g>
<defs>
<linearGradient id="paint0_linear_2862_2014" x1="96.8066" y1="0" x2="96.8066" y2="239.836" gradientUnits="userSpaceOnUse">
<stop stop-color="white"/>
<stop offset="1" stop-color="#819DBF"/>
</linearGradient>
</defs>
</svg>
