<svg width="108" height="107" viewBox="0 0 108 107" fill="none" xmlns="http://www.w3.org/2000/svg">
<path fill-rule="evenodd" clip-rule="evenodd" d="M54 8.91699C48.7915 8.91592 43.6939 10.4074 39.3217 13.2117C34.9494 16.0159 31.4891 20.0133 29.358 24.7218C29.0548 25.3968 28.7443 26.0686 28.4265 26.737L28.3365 26.7414C28.0485 26.7503 27.657 26.7503 27 26.7503C22.2261 26.7503 17.6477 28.6292 14.2721 31.9736C10.8964 35.318 9 39.854 9 44.5837C9 49.3134 10.8964 53.8493 14.2721 57.1937C17.6477 60.5381 22.2261 62.417 27 62.417H27.774L36.774 53.5003H27C24.6131 53.5003 22.3239 52.5609 20.636 50.8887C18.9482 49.2165 18 46.9485 18 44.5837C18 42.2188 18.9482 39.9508 20.636 38.2786C22.3239 36.6064 24.6131 35.667 27 35.667H27.288C28.224 35.667 29.313 35.6715 30.213 35.4887C31.3333 35.2988 32.4042 34.8896 33.363 34.2849C34.4475 33.5894 35.1945 32.7245 35.7615 31.9354C36.1089 31.4271 36.4115 30.8901 36.666 30.3304C36.906 29.834 37.2 29.198 37.548 28.4222L37.566 28.3776C38.9854 25.2352 41.2923 22.5669 44.2084 20.6946C47.1245 18.8223 50.5251 17.826 54 17.826C57.4749 17.826 60.8755 18.8223 63.7916 20.6946C66.7077 22.5669 69.0146 25.2352 70.434 28.3776L70.4565 28.4222C70.8015 29.195 71.094 29.831 71.334 30.3304C71.541 30.7628 71.847 31.3915 72.2385 31.9354C72.8055 32.72 73.548 33.5894 74.637 34.2894C75.726 34.9849 76.8285 35.3014 77.787 35.4931C78.687 35.6715 79.776 35.6715 80.712 35.6715L81 35.667C83.3869 35.667 85.6761 36.6064 87.364 38.2786C89.0518 39.9508 90 42.2188 90 44.5837C90 46.9485 89.0518 49.2165 87.364 50.8887C85.6761 52.5609 83.3869 53.5003 81 53.5003H71.226L80.226 62.417H81C85.7739 62.417 90.3523 60.5381 93.7279 57.1937C97.1036 53.8493 99 49.3134 99 44.5837C99 39.854 97.1036 35.318 93.7279 31.9736C90.3523 28.6292 85.7739 26.7503 81 26.7503C80.343 26.7503 79.9515 26.7503 79.6635 26.7414H79.5735L79.461 26.5051C79.1825 25.9132 78.9095 25.3187 78.642 24.7218C76.5109 20.0133 73.0506 16.0159 68.6783 13.2117C64.3061 10.4074 59.2085 8.91592 54 8.91699Z" fill="#7D7D7D"/>
<path d="M54 53.5004L50.8185 50.3483L54 47.1963L57.1815 50.3483L54 53.5004ZM58.5 93.6254C58.5 94.8078 58.0259 95.9418 57.182 96.7779C56.338 97.614 55.1935 98.0837 54 98.0837C52.8065 98.0837 51.6619 97.614 50.818 96.7779C49.9741 95.9418 49.5 94.8078 49.5 93.6254H58.5ZM32.8185 68.1817L50.8185 50.3483L57.1815 56.6524L39.1815 74.4857L32.8185 68.1817ZM57.1815 50.3483L75.1815 68.1817L68.8185 74.4857L50.8185 56.6524L57.1815 50.3483ZM58.5 53.5004V93.6254H49.5V53.5004H58.5Z" fill="#7D7D7D"/>
</svg>
